<?xml version="1.0" encoding="UTF-8"?>
<!DOCTYPE svg PUBLIC "-//W3C//DTD SVG 1.1//EN" "http://www.w3.org/Graphics/SVG/1.1/DTD/svg11.dtd">
<!-- Creator: CorelDRAW 2018 (64 Bit Versão de avaliação) -->
<svg xmlns="http://www.w3.org/2000/svg" xml:space="preserve" width="423.333mm" height="132.757mm" version="1.1" style="shape-rendering:geometricPrecision; text-rendering:geometricPrecision; image-rendering:optimizeQuality; fill-rule:evenodd; clip-rule:evenodd"
viewBox="0 0 42333.32 13275.72"
 xmlns:xlink="http://www.w3.org/1999/xlink">
 <defs>
  <style type="text/css">
   <![CDATA[
    .fil6 {fill:#272425;fill-rule:nonzero}
    .fil8 {fill:#5A835E;fill-rule:nonzero}
    .fil7 {fill:#74A878;fill-rule:nonzero}
    .fil5 {fill:#942E41;fill-rule:nonzero}
    .fil0 {fill:#BABCBE;fill-rule:nonzero}
    .fil4 {fill:#C14354;fill-rule:nonzero}
    .fil2 {fill:#D08E83;fill-rule:nonzero}
    .fil3 {fill:#ECB4AA;fill-rule:nonzero}
    .fil1 {fill:#F0F1F1;fill-rule:nonzero}
   ]]>
  </style>
 </defs>
 <g id="Camada_x0020_1">
  <metadata id="CorelCorpID_0Corel-Layer"/>
  <g id="_3129586733472">
   <path class="fil0" d="M9345.7 9060.32l9.23 285.45c1071.69,-34.79 2137.22,20.01 3190.79,161.05 -51.46,-103.12 -103.14,-206.12 -155.38,-308.68 -1006,-124.48 -2022.74,-170.75 -3044.64,-137.82z"/>
   <path class="fil1" d="M30254.19 9142.29c-1282.26,149.77 -2402.27,411.79 -3423.98,800.94 -249.88,95.09 -499.43,200.37 -740.67,302.12 -407.8,172.03 -829.48,349.75 -1256.28,479.74 -779.69,237.4 -1663.68,371.39 -2702.65,409.62 -2508.13,91.95 -4377.46,-544.22 -5614.9,-965.32 -124.99,-42.55 -243.89,-83.03 -356.73,-120.49 -1231.66,-408.96 -2491.57,-692.82 -3768.64,-850.76 52.24,102.56 103.92,205.56 155.38,308.68 1193.24,159.8 2370.91,430.44 3523.29,813.11 112.23,37.26 230.43,77.44 354.75,119.79 1173.92,399.46 2908.07,989.56 5216.45,989.56 164,0 331.02,-3.03 500.8,-9.2 1063.97,-39.12 1971.86,-177.14 2775.47,-421.8 440.91,-134.29 869.46,-315.07 1284.01,-489.84 238.99,-100.87 486.09,-205.07 731.25,-298.37 966.91,-368.2 2026.08,-619.92 3233.53,-769.1 77.36,-104.79 154.69,-209.49 232.13,-314.19 -47.73,5.2 -95.58,9.92 -143.21,15.51z"/>
   <path class="fil0" d="M34174.27 8898.41l-1284.32 59.57c-817.89,38.04 -1661.9,78.05 -2492.55,168.8 -77.44,104.7 -154.77,209.4 -232.13,314.19 40.68,-5.01 81.09,-10.31 122.04,-15.09 866.74,-101.28 1756.02,-142.63 2617.65,-182.73l1282.65 -59.6 -13.34 -285.14z"/>
   <path class="fil2" d="M42333.33 12826.49c-263.39,-12.84 -519.94,-76.53 -731.67,-229.16 -248.08,-178.77 -417.27,-467.75 -699.39,-585.68 -172.52,-72.05 -365.25,-69.99 -551.2,-88.72 -373.28,-37.54 -749.48,-172.91 -1014.06,-435.8 124.09,450.8 291.34,903 604.52,1255 201.4,226.37 450.47,398.01 723.25,534.61l1668.55 0 0 -450.25z"/>
   <path class="fil2" d="M39637.46 7354.51c194.09,-261.63 393.46,-543.94 693.8,-670.09 181.17,-76.06 384.76,-88.03 563.84,-168.5 323.3,-145.19 529.92,-495.52 868.02,-601.77 183.12,-57.55 376.62,-34.35 570.21,-17.78l0 -2652.99c-478.48,4.52 -948.44,141.46 -1332.94,438.55 -498.94,385.45 -836.74,935.46 -1105.04,1498.99 -422.66,888.3 -694.3,1843.16 -811.53,2815.96 204.37,-194.01 387.09,-417.88 553.64,-642.37z"/>
   <path class="fil3" d="M42333.33 5896.37c-193.59,-16.57 -387.09,-39.77 -570.21,17.78 -338.1,106.25 -544.72,456.58 -868.02,601.77 -179.08,80.47 -382.67,92.44 -563.84,168.5 -300.34,126.15 -499.71,408.46 -693.8,670.09 -166.55,224.49 -349.27,448.36 -553.64,642.37 -139.68,1159.41 -59.8,2344.23 248.19,3472.41l5 17.84c264.58,262.89 640.78,398.26 1014.06,435.8 185.95,18.73 378.68,16.67 551.2,88.72 282.12,117.93 451.31,406.91 699.39,585.68 211.73,152.63 468.28,216.32 731.67,229.16l0 -6930.12z"/>
   <path class="fil2" d="M2605.28 12193.18c-269.08,-47.04 -537.28,78.83 -768.52,224.29 -231.12,145.46 -455.22,317.6 -721.17,379.84 -173.61,40.49 -354.63,31.37 -531.88,51.07 -203.7,22.65 -402.54,85.14 -583.71,181.03l0 247.33 1713.09 0c548.89,-201.2 1033.2,-517.19 1386.04,-907.31l-14.7 -3.81c-162.64,-49.51 -311.63,-143.24 -479.15,-172.44z"/>
   <path class="fil2" d="M-0 6115.63c326.82,-242.33 659.54,-466.42 1054.52,-538.89 171.55,-31.57 347.61,-32.15 519.44,-62.52 523.55,-92.75 971.41,-464.06 1239.52,-923.32 38.51,-66.04 73.33,-133.9 105.28,-203 -35.48,-42.35 -70.88,-84.7 -107.45,-126.43 -650.59,-741.18 -1495.04,-1393.71 -2486.27,-1841.29 -119.59,-54.02 -226.32,-96.15 -325.04,-125.6l0 3821.05z"/>
   <path class="fil3" d="M4436.76 7335.01c-285.17,-1043.58 -774.01,-2059.2 -1518,-2947.11 -31.95,69.1 -66.77,136.96 -105.28,203 -268.11,459.26 -715.97,830.57 -1239.52,923.32 -171.83,30.37 -347.89,30.95 -519.44,62.52 -394.98,72.47 -727.7,296.56 -1054.52,538.89l0 6913.78c181.17,-95.89 380.01,-158.38 583.71,-181.03 177.25,-19.7 358.27,-10.58 531.88,-51.07 265.95,-62.24 490.05,-234.38 721.17,-379.84 231.24,-145.46 499.44,-271.33 768.52,-224.29 167.52,29.2 316.51,122.93 479.15,172.44l14.7 3.81c168.69,-186.64 307.68,-389.93 408.85,-606.08 376.61,-804 250.46,-1676.91 168.8,-2543.54 -29.51,-312.59 144.18,-605.3 428.46,-738.89 153.5,-72.16 280.84,-191.76 343.28,-325.35 121.65,-260.06 62.24,-549.42 -11.76,-820.56z"/>
   <path class="fil3" d="M9009.21 12146.83c-255.55,-345.05 -690.02,-503.76 -1108.07,-601.77 -417.99,-98.14 -856.07,-157.82 -1226.18,-375.25 -43.04,-25.29 -84.31,-52.94 -124.79,-81.64 85.97,479.62 162.33,979.05 14.98,1441.84 -87.34,274.19 -247.55,516.13 -422.55,746.73l2194.15 0 598.74 0 502.6 0c-22.56,-54.68 -42.45,-110.15 -59.93,-165.27 -104.98,-329.94 -163.02,-686.36 -368.95,-964.64z"/>
   <path class="fil2" d="M10148.15 9451.64c-249.47,-223.19 -620.81,-277.12 -936.82,-166.72 -1023.87,357.39 -1891,993.75 -2671.27,1746.87 3.44,18.73 6.78,37.54 10.11,56.38 40.48,28.7 81.75,56.35 124.79,81.64 370.11,217.43 808.19,277.11 1226.18,375.25 418.05,98.01 852.52,256.72 1108.07,601.77 205.93,278.28 263.97,634.7 368.95,964.64 17.48,55.12 37.37,110.59 59.93,165.27l165.53 0c431.41,-1222.52 621.11,-2530.73 544.53,-3825.1z"/>
   <path class="fil4" d="M11175.24 7255.4c-10.69,-38.4 -22.95,-78.69 -51.96,-106.06 -33.51,-31.57 -82.24,-39.4 -127.81,-45.68 -105.79,-14.4 -211.65,-27.62 -317.52,-40.27 7.67,36.54 15.31,73.11 23.04,109.68 32.76,156.05 65.79,315.35 47.95,473.84 -17.86,158.41 -95.58,318.88 -235.57,395.43 -218.29,119.4 -485.32,0.11 -704.19,-118.32 -272.11,293.4 -796.75,294.57 -1070.14,2.28 -284.95,226.24 -726.64,225.74 -1011.12,-0.89 -24.31,-19.42 -51.96,-41.46 -82.63,-36.48 -21.87,3.53 -38.82,20.2 -55.19,35.2 -227.43,208.71 -618.52,203.51 -840.37,-11.17 -133.9,-129.68 -200.95,-311.23 -272.39,-483.45 -77.74,-187.23 -165.58,-370.26 -262.61,-548.26 -10.7,0.09 -21.37,0.09 -32.06,0.31 -355.45,3.42 -710.78,8.61 -1065.81,13.89 -1.97,12.37 -3.53,24.93 -5.5,37.15 314.66,1326.47 367.59,2714.79 151.05,4060.87 -17.45,108.62 -36.96,217.71 -75.86,320.55 -18.23,48.01 -40.87,95.56 -62.74,143.1 674.52,-66.66 1348.42,-138.13 2022.16,-211.73 92.02,-265.25 190.05,-528.45 295.61,-788.69 58.44,-143.83 120.1,-288.98 217.71,-409.55 22.95,-28.34 51.88,-57.15 88.22,-58.13 63.63,-1.86 94.7,75.78 106.09,138.41 62.24,341.1 73.69,691.27 36.46,1036.01 1047.96,-118.5 2095.06,-244.57 3141.08,-379.64 56.16,-7.25 115.29,-15.78 159.89,-50.68 56.74,-44.6 76.16,-120.68 91.05,-191.34 227.52,-1082.89 190.56,-2220.44 -106.84,-3286.38z"/>
   <path class="fil5" d="M6749.73 7912.96c221.85,214.68 612.94,219.88 840.37,11.17 16.37,-15 33.32,-31.67 55.19,-35.2 30.67,-4.98 58.32,17.06 82.63,36.48 284.48,226.63 726.17,227.13 1011.12,0.89 273.39,292.29 798.03,291.12 1070.14,-2.28 218.87,118.43 485.9,237.72 704.19,118.32 139.99,-76.55 217.71,-237.02 235.57,-395.43 17.84,-158.49 -15.19,-317.79 -47.95,-473.84 -7.73,-36.57 -15.37,-73.14 -23.04,-109.68 -88.61,-10.5 -177.22,-20.59 -265.83,-30.09 -1391.66,-149.99 -2795.06,-165.38 -4197.39,-152.05 97.03,178 184.87,361.03 262.61,548.26 71.44,172.22 138.49,353.77 272.39,483.45z"/>
   <path class="fil5" d="M7853.6 10127.43c-11.39,-62.63 -42.46,-140.27 -106.09,-138.41 -36.34,0.98 -65.27,29.79 -88.22,58.13 -97.61,120.57 -159.27,265.72 -217.71,409.55 -105.56,260.24 -203.59,523.44 -295.61,788.69 248.07,-27.07 496.09,-53.91 744.09,-81.95 37.23,-344.74 25.78,-694.91 -36.46,-1036.01z"/>
   <path class="fil5" d="M5262.41 10993.47c216.54,-1346.08 163.61,-2734.4 -151.05,-4060.87 -224.96,1461.76 -207.23,3063.76 11.48,4524.63l0.97 -0.11c21.87,-47.54 44.51,-95.09 62.74,-143.1 38.9,-102.84 58.41,-211.93 75.86,-320.55z"/>
   <path class="fil3" d="M9864.06 7520.17c48.32,79.39 99.59,161.75 178.69,210.46 69.91,43.04 154.3,55.1 236.16,60.38 138.9,8.92 288.59,-2.34 398.65,-87.53 109.01,-84.39 158.8,-230.15 150.58,-367.78 -8.34,-137.63 -68.14,-267.72 -144.8,-382.2 -179.67,-268.58 -477.26,-473.95 -800.36,-476.4 -109,-0.78 -222.12,23.04 -307.59,90.58 -310.16,244.94 149.96,724.98 288.67,952.49z"/>
   <path class="fil3" d="M8786.09 7520.17c48.32,79.39 99.61,161.75 178.69,210.46 69.91,43.04 154.3,55.1 236.16,60.38 138.9,8.92 288.59,-2.34 398.65,-87.53 109,-84.39 158.8,-230.15 150.57,-367.78 -8.33,-137.63 -68.13,-267.72 -144.79,-382.2 -179.67,-268.58 -477.26,-473.95 -800.36,-476.4 -109.01,-0.78 -222.13,23.04 -307.6,90.58 -310.15,244.94 149.97,724.98 288.68,952.49z"/>
   <path class="fil3" d="M7708.11 7520.17c48.35,79.39 99.62,161.75 178.7,210.46 69.99,43.04 154.29,55.1 236.24,60.38 138.82,8.92 288.5,-2.34 398.56,-87.53 109.01,-84.39 158.91,-230.15 150.58,-367.78 -8.34,-137.63 -68.13,-267.72 -144.8,-382.2 -179.66,-268.58 -477.26,-473.95 -800.36,-476.4 -109,-0.78 -222.12,23.04 -307.59,90.58 -310.15,244.94 149.99,724.98 288.67,952.49z"/>
   <path class="fil3" d="M6630.14 7520.17c48.35,79.39 99.61,161.75 178.8,210.46 69.89,43.04 154.19,55.1 236.13,60.38 138.82,8.92 288.51,-2.34 398.57,-87.53 109.01,-84.39 158.91,-230.15 150.58,-367.78 -8.23,-137.63 -68.14,-267.72 -144.77,-382.2 -179.7,-268.58 -477.29,-473.95 -800.39,-476.4 -108.89,-0.78 -222.01,23.04 -307.59,90.58 -310.16,244.94 150.07,724.98 288.67,952.49z"/>
   <path class="fil3" d="M6665.34 9939.2c219.49,-229.15 541.78,-418.27 843.21,-318.76 295.93,97.72 448.25,471.7 343.86,765.37 -32.54,91.37 -84.58,174.89 -115.07,266.92 -26.87,81.16 -36.17,167.05 -59.9,249.08 -67.05,232.32 -249.28,421.6 -466.4,528.16 -217.04,106.45 -466,135.96 -707.13,117.73 -883.7,-66.96 -153.33,-1279.51 161.43,-1608.5z"/>
   <path class="fil3" d="M33380.97 12146.83c255.44,-345.05 689.99,-503.76 1107.95,-601.77 418.08,-98.14 856.05,-157.82 1226.3,-375.25 42.93,-25.29 84.19,-52.94 124.68,-81.64 -85.97,479.62 -162.22,979.05 -14.9,1441.84 87.34,274.19 247.55,516.13 422.52,746.73l-3295.52 0c22.54,-54.68 42.46,-110.15 59.99,-165.27 104.89,-329.94 162.94,-686.36 368.98,-964.64z"/>
   <path class="fil2" d="M32241.92 9451.64c249.58,-223.19 620.8,-277.12 936.93,-166.72 1023.76,357.39 1890.86,993.75 2671.16,1746.87 -3.33,18.73 -6.67,37.54 -10.11,56.38 -40.49,28.7 -81.75,56.35 -124.68,81.64 -370.25,217.43 -808.22,277.11 -1226.3,375.25 -417.96,98.01 -852.51,256.72 -1107.95,601.77 -206.04,278.28 -264.09,634.7 -368.98,964.64 -17.53,55.12 -37.45,110.59 -59.99,165.27l-165.52 0c-431.36,-1222.52 -621.08,-2530.73 -544.56,-3825.1z"/>
   <path class="fil4" d="M31214.82 7255.4c10.78,-38.4 22.95,-78.69 52.05,-106.06 33.42,-31.57 82.16,-39.4 127.84,-45.68 105.67,-14.4 211.54,-27.62 317.49,-40.27 -7.75,36.54 -15.39,73.11 -23.04,109.68 -32.84,156.05 -65.77,315.35 -47.93,473.84 17.84,158.41 95.56,318.88 235.46,395.43 218.29,119.4 485.32,0.11 704.2,-118.32 272.11,293.4 796.85,294.57 1070.13,2.28 285.06,226.24 726.64,225.74 1011.23,-0.89 24.21,-19.42 51.94,-41.46 82.61,-36.48 21.87,3.53 38.82,20.2 55.21,35.2 227.41,208.71 618.53,203.51 840.26,-11.17 133.99,-129.68 200.96,-311.23 272.51,-483.45 77.71,-187.23 165.55,-370.26 262.49,-548.26 10.7,0.09 21.48,0.09 32.15,0.31 355.45,3.42 710.78,8.61 1065.83,13.89 1.95,12.37 3.53,24.93 5.39,37.15 -314.57,1326.47 -367.5,2714.79 -150.96,4060.87 17.45,108.62 36.87,217.71 75.89,320.55 18.22,48.01 40.87,95.56 62.63,143.1 -674.41,-66.66 -1348.34,-138.13 -2022.05,-211.73 -92.14,-265.25 -190.17,-528.45 -295.73,-788.69 -58.32,-143.83 -119.98,-288.98 -217.62,-409.55 -22.95,-28.34 -51.85,-57.15 -88.22,-58.13 -63.63,-1.86 -94.7,75.78 -106.06,138.41 -62.25,341.1 -73.83,691.27 -36.57,1036.01 -1047.88,-118.5 -2095.07,-244.57 -3141,-379.64 -56.16,-7.25 -115.37,-15.78 -159.86,-50.68 -56.77,-44.6 -76.27,-120.68 -91.17,-191.34 -227.51,-1082.89 -190.56,-2220.44 106.84,-3286.38z"/>
   <path class="fil5" d="M35640.33 7912.96c-221.73,214.68 -612.85,219.88 -840.26,11.17 -16.39,-15 -33.34,-31.67 -55.21,-35.2 -30.67,-4.98 -58.4,17.06 -82.61,36.48 -284.59,226.63 -726.17,227.13 -1011.23,0.89 -273.28,292.29 -798.02,291.12 -1070.13,-2.28 -218.88,118.43 -485.91,237.72 -704.2,118.32 -139.9,-76.55 -217.62,-237.02 -235.46,-395.43 -17.84,-158.49 15.09,-317.79 47.93,-473.84 7.65,-36.57 15.29,-73.14 23.04,-109.68 88.53,-10.5 177.22,-20.59 265.83,-30.09 1391.66,-149.99 2795.06,-165.38 4197.3,-152.05 -96.94,178 -184.78,361.03 -262.49,548.26 -71.55,172.22 -138.52,353.77 -272.51,483.45z"/>
   <path class="fil5" d="M34536.58 10127.43c11.36,-62.63 42.43,-140.27 106.06,-138.41 36.37,0.98 65.27,29.79 88.22,58.13 97.64,120.57 159.3,265.72 217.62,409.55 105.56,260.24 203.59,523.44 295.73,788.69 -248.1,-27.07 -496.21,-53.91 -744.2,-81.95 -37.26,-344.74 -25.68,-694.91 36.57,-1036.01z"/>
   <path class="fil5" d="M37127.74 10993.47c-216.54,-1346.08 -163.61,-2734.4 150.96,-4060.87 224.96,1461.76 207.23,3063.76 -11.36,4524.63l-1.08 -0.11c-21.76,-47.54 -44.41,-95.09 -62.63,-143.1 -39.02,-102.84 -58.44,-211.93 -75.89,-320.55z"/>
   <path class="fil3" d="M32526.09 7520.17c-48.32,79.39 -99.59,161.75 -178.78,210.46 -69.91,43.04 -154.21,55.1 -236.15,60.38 -138.8,8.92 -288.48,-2.34 -398.57,-87.53 -109.01,-84.39 -158.88,-230.15 -150.58,-367.78 8.26,-137.63 68.14,-267.72 144.69,-382.2 179.78,-268.58 477.4,-473.95 800.47,-476.4 108.92,-0.78 222.04,23.04 307.59,90.58 310.16,244.94 -150.07,724.98 -288.67,952.49z"/>
   <path class="fil3" d="M33604.06 7520.17c-48.43,79.39 -99.58,161.75 -178.8,210.46 -69.88,43.04 -154.19,55.1 -236.13,60.38 -138.79,8.92 -288.59,-2.34 -398.57,-87.53 -109.09,-84.39 -158.88,-230.15 -150.57,-367.78 8.25,-137.63 68.05,-267.72 144.68,-382.2 179.78,-268.58 477.4,-473.95 800.47,-476.4 108.92,-0.78 222.04,23.04 307.51,90.58 310.16,244.94 -149.99,724.98 -288.59,952.49z"/>
   <path class="fil3" d="M34681.95 7520.17c-48.34,79.39 -99.61,161.75 -178.72,210.46 -69.88,43.04 -154.27,55.1 -236.13,60.38 -138.79,8.92 -288.59,-2.34 -398.57,-87.53 -109.08,-84.39 -158.88,-230.15 -150.65,-367.78 8.33,-137.63 68.13,-267.72 144.88,-382.2 179.66,-268.58 477.17,-473.95 800.35,-476.4 108.93,-0.78 222.05,23.04 307.52,90.58 310.15,244.94 -149.99,724.98 -288.68,952.49z"/>
   <path class="fil3" d="M35760.01 7520.17c-48.43,79.39 -99.7,161.75 -178.8,210.46 -69.89,43.04 -154.19,55.1 -236.13,60.38 -138.8,8.92 -288.59,-2.34 -398.57,-87.53 -109.09,-84.39 -158.88,-230.15 -150.58,-367.78 8.26,-137.63 68.05,-267.72 144.69,-382.2 179.78,-268.58 477.28,-473.95 800.47,-476.4 108.92,-0.78 222.04,23.04 307.51,90.58 310.15,244.94 -149.99,724.98 -288.59,952.49z"/>
   <path class="fil3" d="M35724.72 9939.2c-219.37,-229.15 -541.78,-418.27 -843.09,-318.76 -295.96,97.72 -448.28,471.7 -343.89,765.37 32.46,91.37 84.61,174.89 115.09,266.92 26.76,81.16 36.18,167.05 59.8,249.08 67.13,232.32 249.27,421.6 466.39,528.16 217.13,106.45 466.01,135.96 707.14,117.73 883.8,-66.96 153.41,-1279.51 -161.44,-1608.5z"/>
   <path class="fil5" d="M2277.98 9708.97c-212.04,-83.84 -424.16,-167.64 -636.19,-251.44 -128.21,-50.58 -260.36,-102.04 -398.18,-100.59 -327.19,3.53 -582.85,309.29 -662.63,626.58 -113.53,451.2 44.99,949.96 367.28,1285.48 322.33,335.55 791.36,512.08 1256.59,519.83 345.44,5.7 706.94,-85.47 957.6,-323.49 205.84,-195.64 319.16,-474.73 353.67,-756.62 22.92,-187.64 12.75,-376.81 -13.73,-563.45 -33.93,-239.19 -22.15,-251.33 -229.77,-252.14 -365.53,-1.44 -648.34,-47.32 -994.64,-184.16z"/>
   <path class="fil3" d="M39266.04 7273.54c-67.24,-150.66 -174.47,-301.42 -334.74,-340.94 -160.19,-39.4 -330.63,48.05 -434.16,176.56 -103.51,128.4 -152.91,291.23 -194.67,450.81 -88.61,338.57 -153.11,694.6 -81.67,1037.29 71.58,342.61 306.15,670.4 644.03,761.76 86.25,23.32 181.14,30.18 262.7,-6.39 184.19,-82.52 213.2,-327.99 210.87,-529.8 -6,-494.85 133.21,-1088.76 -72.36,-1549.29z"/>
   <path class="fil6" d="M41561.78 8006.46c-53.93,-172.41 -210.45,-323.85 -401.12,-228.09 -148.71,74.8 -218.01,263.49 -249.66,417.29 -42.35,205.84 -28.23,444.33 175.05,560.51 206.15,117.73 423.08,-2.17 509.44,-202.81 72.63,-168.81 70.38,-389.07 -33.71,-546.9z"/>
   <path class="fil6" d="M2853.66 7000.74c-12.53,-140.46 -77.72,-273.39 -223.21,-314.66 -137.51,-39.09 -269.44,49.99 -331.21,168.5 -112.81,217.04 -82.92,566.2 189.86,642.87 204.87,57.51 351.64,-117.65 360.95,-304.68 1.17,-24.12 0.67,-49.49 -0.89,-75.19 6.36,-39.21 7.95,-79 4.5,-116.84z"/>
   <path class="fil7" d="M-0 4601.91c26.4,-10.87 52.49,-22.37 78.3,-34.32 132.35,-61.18 261.53,-134.6 363.67,-238.6 118.51,-120.56 194.39,-275.34 285.56,-417.57 179.39,-279.76 424.24,-517.19 709.5,-687.74 97.81,-58.52 203.28,-110.18 316.82,-120.57 140.26,-12.95 277.31,37.85 415.71,63.8 486.29,91.16 992.5,-135.96 1337.72,-490.32 85,-87.22 161.55,-181.34 231.04,-280.64 34.43,-165.94 52.74,-333.86 39.02,-501.69 -33.9,-411.99 -254.67,-770.96 -507.97,-1068.16 -360.52,-423.08 -826.03,-771.27 -1355.08,-821.84 -528.92,-50.57 -1116.57,265.17 -1303.13,823.89 -28.81,86.17 -55.38,186.34 -129.68,227.32 -92.06,50.88 -195.17,-20.08 -278.7,-81.85 -65.66,-48.52 -133.37,-92.2 -202.78,-131.43l0 3759.72z"/>
   <path class="fil8" d="M3507.28 2676.59c-345.22,354.36 -851.43,581.48 -1337.72,490.32 -138.4,-25.95 -275.45,-76.75 -415.71,-63.8 -113.54,10.39 -219.01,62.05 -316.82,120.57 -285.26,170.55 -530.11,407.98 -709.5,687.74 -91.17,142.23 -167.05,297.01 -285.56,417.57 -102.14,104 -231.32,177.42 -363.67,238.6 -25.81,11.95 -51.9,23.45 -78.3,34.32l0 903.92c580.6,-165.25 1151.22,-387.12 1714.81,-620.56 445.64,-184.55 903,-386.89 1243.24,-759.48 320.47,-350.83 507.5,-821.34 658.82,-1288.93 46.68,-144.18 90.58,-291.7 121.45,-440.91 -69.49,99.3 -146.04,193.42 -231.04,280.64z"/>
   <path class="fil2" d="M38775.84 7937.28c-12.56,-39.32 -26.96,-79.22 -53.83,-110.48 -26.76,-31.37 -68.71,-52.85 -109.09,-44.79 -79.22,15.78 -97.75,118.98 -98.92,199.67 -0.89,64.88 -1.75,129.79 -2.64,194.67 -1.66,114.4 -2.75,231.43 34.29,339.55 46.88,135.96 264.89,352.61 330.27,141.54 56.74,-183 -44.43,-544.91 -100.08,-720.16z"/>
   <path class="fil8" d="M42333.33 4683.49c-168.83,39.46 -340.47,39.51 -510.8,-20.34 -205.17,-72.05 -372.39,-223.99 -570.23,-314.35 -507.55,-231.63 -1182.84,42.35 -1385.46,562.18 -100.78,258.58 -93.03,544.61 -135.07,818.89 -42.15,274.25 -157.55,566.56 -406.43,689.19 -196.73,96.94 -428.55,57.15 -619.61,-57.72 44.32,292.29 113.73,579.91 218.71,856.91 105.36,278.31 335.93,973.69 638.61,655.51 238.41,-250.66 251.05,-725.78 357.22,-1039.16 204.07,-602.35 721.45,-1088.75 1335.28,-1255.31 349.97,-95.02 718.22,-90.52 1077.78,-138.29l0 -757.51z"/>
   <path class="fil7" d="M42333.33 2033.17c-503.52,2.8 -1005.09,91.66 -1502.13,180.16 -503.74,89.81 -1032.1,190.67 -1426.25,517 -585.6,484.73 -713.22,1322.13 -751.26,2081.42 -25.6,511.69 -25.48,1038.1 52.04,1549.59 191.06,114.87 422.88,154.66 619.61,57.72 248.88,-122.63 364.28,-414.94 406.43,-689.19 42.04,-274.28 34.29,-560.31 135.07,-818.89 202.62,-519.83 877.91,-793.81 1385.46,-562.18 197.84,90.36 365.06,242.3 570.23,314.35 170.33,59.85 341.97,59.8 510.8,20.34l0 -2650.32z"/>
  </g>
 </g>
</svg>
