<?xml version="1.0" encoding="UTF-8"?>
<!DOCTYPE svg PUBLIC "-//W3C//DTD SVG 1.1//EN" "http://www.w3.org/Graphics/SVG/1.1/DTD/svg11.dtd">
<!-- Creator: CorelDRAW 2018 (64 Bit Versão de avaliação) -->
<svg xmlns="http://www.w3.org/2000/svg" xml:space="preserve" width="423.333mm" height="132.757mm" version="1.1" style="shape-rendering:geometricPrecision; text-rendering:geometricPrecision; image-rendering:optimizeQuality; fill-rule:evenodd; clip-rule:evenodd"
viewBox="0 0 42333.32 13275.72"
 xmlns:xlink="http://www.w3.org/1999/xlink">
 <defs>
  <style type="text/css">
   <![CDATA[
    .fil7 {fill:#272425;fill-rule:nonzero}
    .fil6 {fill:#942E41;fill-rule:nonzero}
    .fil9 {fill:#A65137;fill-rule:nonzero}
    .fil5 {fill:#AE871D;fill-rule:nonzero}
    .fil0 {fill:#BABCBE;fill-rule:nonzero}
    .fil2 {fill:#D08E83;fill-rule:nonzero}
    .fil3 {fill:#ECB4AA;fill-rule:nonzero}
    .fil1 {fill:#F0F1F1;fill-rule:nonzero}
    .fil8 {fill:#F78E36;fill-rule:nonzero}
    .fil4 {fill:#FFCA1C;fill-rule:nonzero}
   ]]>
  </style>
 </defs>
 <g id="Camada_x0020_1">
  <metadata id="CorelCorpID_0Corel-Layer"/>
  <g id="_3129655730144">
   <path class="fil0" d="M9345.81 9059.94l9.31 285.41c1071.6,-34.78 2137.21,20 3190.78,161.03 -51.57,-103.11 -103.11,-206.09 -155.38,-308.63 -1006.11,-124.47 -2022.7,-170.73 -3044.71,-137.81z"/>
   <path class="fil1" d="M30254.31 9141.9c-1282.34,149.74 -2402.38,411.74 -3424.08,800.82 -249.85,95.07 -499.32,200.33 -740.56,302.08 -407.88,172 -829.48,349.69 -1256.39,479.65 -779.68,237.38 -1663.65,371.35 -2702.61,409.58 -2508.13,91.92 -4377.37,-544.16 -5614.81,-965.19 -125.09,-42.53 -243.99,-83.01 -356.8,-120.46 -1231.57,-408.89 -2491.57,-692.73 -3768.55,-850.63 52.27,102.54 103.81,205.52 155.38,308.63 1193.23,159.77 2370.82,430.37 3523.17,812.99 112.23,37.25 230.54,77.42 354.75,119.76 1174.03,399.4 2908.09,989.41 5216.44,989.41 163.99,0 331.13,-3.02 500.9,-9.2 1063.97,-39.11 1971.86,-177.11 2775.35,-421.73 440.92,-134.28 869.58,-315.02 1284.04,-489.76 239.07,-100.86 486.09,-205.04 731.25,-298.34 966.91,-368.14 2026.15,-619.81 3233.61,-768.98 77.35,-104.76 154.68,-209.44 232.01,-314.13 -47.62,5.19 -95.56,9.92 -143.1,15.5z"/>
   <path class="fil0" d="M34174.76 8898.06l-1284.79 59.57c-817.8,38.02 -1661.81,78.03 -2492.57,168.77 -77.33,104.69 -154.66,209.37 -232.01,314.13 40.68,-5.01 80.97,-10.3 122.03,-15.09 866.74,-101.26 1755.9,-142.6 2617.64,-182.69l1282.45 -59.59 -12.75 -285.1z"/>
   <path class="fil2" d="M42333.3 12825.54c-263.34,-12.86 -519.69,-76.54 -731.26,-229.12 -247.99,-178.76 -417.57,-467.69 -699.88,-585.6 -172.52,-72.03 -364.67,-69.97 -550.89,-88.7 -373.48,-37.53 -749.9,-172.89 -1014.56,-435.73 124.48,450.72 292.11,902.85 604.82,1254.8 201.59,226.34 450.7,397.95 723.5,534.53l1668.27 0 0 -450.18z"/>
   <path class="fil2" d="M39637.63 7354.4c194.09,-261.6 393.1,-543.86 694.02,-669.99 180.36,-76.05 384.26,-88.02 563.65,-168.48 323.49,-145.16 529.33,-495.44 867.51,-601.68 183.39,-57.53 376.93,-34.33 570.49,-17.78l0 -2652.58c-478.46,4.53 -948.38,141.47 -1333.11,438.49 -498.96,385.39 -836.15,935.31 -1104.73,1498.76 -422.49,888.17 -694.02,1842.87 -811.64,2815.52 204.87,-193.98 387.18,-417.8 553.81,-642.26z"/>
   <path class="fil3" d="M42333.3 5896.47c-193.56,-16.55 -387.1,-39.75 -570.49,17.78 -338.18,106.24 -544.02,456.52 -867.51,601.68 -179.39,80.46 -383.29,92.43 -563.65,168.48 -300.92,126.13 -499.93,408.39 -694.02,669.99 -166.63,224.46 -348.94,448.28 -553.81,642.26 -139.21,1159.24 -59.79,2343.87 248,3471.89l4.89 17.84c264.66,262.84 641.08,398.2 1014.56,435.73 186.22,18.73 378.37,16.67 550.89,88.7 282.31,117.91 451.89,406.84 699.88,585.6 211.57,152.58 467.92,216.26 731.26,229.12l0 -6929.07z"/>
   <path class="fil2" d="M2605.37 12192.33c-269.05,-47.04 -537.16,78.81 -768.4,224.26 -231.24,145.43 -455.22,317.55 -721.25,379.78 -173.61,40.47 -354.55,31.36 -531.77,51.06 -203.82,22.65 -402.74,85.16 -583.93,181.06l0 247.23 1713.25 0c548.91,-201.17 1033.23,-517.11 1386.06,-907.17l-14.81 -3.8c-162.6,-49.52 -311.62,-143.22 -479.15,-172.42z"/>
   <path class="fil2" d="M0.02 6115.76c326.85,-242.32 659.62,-466.41 1054.63,-538.86 171.63,-31.56 347.69,-32.15 519.43,-62.51 523.64,-92.74 971.41,-463.99 1239.5,-923.18 38.62,-66.04 73.32,-133.88 105.39,-202.97 -35.48,-42.35 -70.88,-84.69 -107.53,-126.42 -650.59,-741.05 -1495.07,-1393.5 -2486.3,-1841.01 -119.64,-54 -226.34,-96.15 -325.12,-125.6l0 3820.55z"/>
   <path class="fil3" d="M4436.85 7334.9c-285.14,-1043.43 -773.98,-2058.88 -1517.88,-2946.66 -32.07,69.09 -66.77,136.93 -105.39,202.97 -268.09,459.19 -715.86,830.44 -1239.5,923.18 -171.74,30.36 -347.8,30.95 -519.43,62.51 -395.01,72.45 -727.78,296.54 -1054.63,538.86l0 6912.73c181.19,-95.9 380.11,-158.41 583.93,-181.06 177.22,-19.7 358.16,-10.59 531.77,-51.06 266.03,-62.23 490.01,-234.35 721.25,-379.78 231.24,-145.45 499.35,-271.3 768.4,-224.26 167.53,29.2 316.55,122.9 479.15,172.42l14.81 3.8c168.69,-186.61 307.71,-389.86 408.85,-605.98 376.61,-803.88 250.35,-1676.66 168.69,-2543.16 -29.4,-312.54 144.29,-605.2 428.46,-738.79 153.61,-72.14 280.84,-191.72 343.31,-325.28 121.64,-260.02 62.32,-549.35 -11.79,-820.44z"/>
   <path class="fil3" d="M9009.29 12145.98c-255.55,-344.99 -689.99,-503.68 -1107.95,-601.67 -418.08,-98.13 -856.16,-157.8 -1226.3,-375.19 -42.93,-25.3 -84.19,-52.93 -124.68,-81.64 85.98,479.55 162.33,978.91 14.9,1441.63 -87.33,274.15 -247.55,516.05 -422.52,746.61l2194.2 0 598.63 0 502.63 0c-22.51,-54.68 -42.4,-110.13 -59.94,-165.24 -104.89,-329.89 -163.02,-686.25 -368.97,-964.5z"/>
   <path class="fil2" d="M10148.32 9451.2c-249.57,-223.14 -620.8,-277.07 -936.92,-166.69 -1023.76,357.34 -1890.86,993.6 -2671.24,1746.61 3.41,18.72 6.75,37.53 10.19,56.36 40.49,28.71 81.75,56.34 124.68,81.64 370.14,217.39 808.22,277.06 1226.3,375.19 417.96,97.99 852.4,256.68 1107.95,601.67 205.95,278.25 264.08,634.61 368.97,964.5 17.54,55.11 37.43,110.56 59.94,165.24l165.52 0c431.49,-1222.33 621.14,-2530.34 544.61,-3824.52z"/>
   <path class="fil4" d="M11175.31 7255.3c-10.67,-38.4 -22.85,-78.68 -51.94,-106.04 -33.54,-31.56 -82.25,-39.4 -127.84,-45.68 -105.76,-14.39 -211.54,-27.61 -317.49,-40.26 7.64,36.54 15.39,73.1 23.04,109.67 32.73,156.02 65.77,315.29 47.93,473.76 -17.84,158.38 -95.59,318.83 -235.55,395.36 -218.2,119.39 -485.23,0.12 -704.1,-118.29 -272.23,293.36 -796.86,294.52 -1070.14,2.27 -285.06,226.21 -726.64,225.71 -1011.23,-0.88 -24.28,-19.42 -51.93,-41.45 -82.6,-36.48 -21.87,3.54 -38.82,20.2 -55.22,35.19 -227.29,208.68 -618.52,203.49 -840.25,-11.15 -133.91,-129.66 -200.95,-311.2 -272.5,-483.38 -77.72,-187.21 -165.56,-370.21 -262.5,-548.18 -10.78,0.09 -21.48,0.09 -32.15,0.3 -355.36,3.43 -710.69,8.63 -1065.72,13.89 -2.05,12.37 -3.64,24.93 -5.5,37.15 314.57,1326.27 367.59,2714.37 150.96,4060.26 -17.45,108.59 -36.87,217.66 -75.88,320.5 -18.23,47.99 -40.87,95.54 -62.63,143.07 674.4,-66.65 1348.41,-138.11 2022.04,-211.7 92.05,-265.22 190.06,-528.36 295.64,-788.58 58.41,-143.8 120.07,-288.92 217.71,-409.47 22.84,-28.35 51.85,-57.15 88.22,-58.12 63.63,-1.87 94.7,75.76 106.06,138.38 62.24,341.05 73.72,691.17 36.57,1035.86 1047.88,-118.49 2095.06,-244.53 3141.08,-379.59 56.07,-7.25 115.17,-15.77 159.77,-50.68 56.77,-44.59 76.27,-120.66 91.08,-191.3 227.6,-1082.74 190.56,-2220.1 -106.86,-3285.88z"/>
   <path class="fil5" d="M6749.93 7912.77c221.73,214.64 612.96,219.83 840.25,11.15 16.4,-14.99 33.35,-31.65 55.22,-35.19 30.67,-4.97 58.32,17.06 82.6,36.48 284.59,226.59 726.17,227.09 1011.23,0.88 273.28,292.25 797.91,291.09 1070.14,-2.27 218.87,118.41 485.9,237.68 704.1,118.29 139.96,-76.53 217.71,-236.98 235.55,-395.36 17.84,-158.47 -15.2,-317.74 -47.93,-473.76 -7.65,-36.57 -15.4,-73.13 -23.04,-109.67 -88.53,-10.5 -177.22,-20.59 -265.83,-30.08 -1391.65,-149.98 -2795.05,-165.36 -4197.29,-152.03 96.94,177.97 184.78,360.97 262.5,548.18 71.55,172.18 138.59,353.72 272.5,483.38z"/>
   <path class="fil5" d="M7853.68 10126.89c-11.36,-62.62 -42.43,-140.25 -106.06,-138.38 -36.37,0.97 -65.38,29.77 -88.22,58.12 -97.64,120.55 -159.3,265.67 -217.71,409.47 -105.58,260.22 -203.59,523.36 -295.64,788.58 248.1,-27.06 496.21,-53.9 744.2,-81.93 37.15,-344.69 25.67,-694.81 -36.57,-1035.86z"/>
   <path class="fil5" d="M5262.52 10992.81c216.63,-1345.89 163.61,-2733.99 -150.96,-4060.26 -224.96,1461.53 -207.23,3063.29 11.37,4523.95l1.08 -0.12c21.76,-47.53 44.4,-95.08 62.63,-143.07 39.01,-102.84 58.43,-211.91 75.88,-320.5z"/>
   <path class="fil3" d="M9864.16 7520.04c48.32,79.36 99.59,161.71 178.78,210.41 69.8,43.03 154.21,55.1 236.15,60.38 138.8,8.92 288.59,-2.34 398.57,-87.52 109.01,-84.37 158.8,-230.11 150.58,-367.72 -8.34,-137.6 -68.05,-267.68 -144.69,-382.15 -179.77,-268.54 -477.28,-473.88 -800.47,-476.32 -109,-0.78 -222.04,23.03 -307.59,90.56 -310.15,244.91 149.96,724.87 288.67,952.36z"/>
   <path class="fil3" d="M8786.19 7520.04c48.32,79.36 99.7,161.71 178.7,210.41 69.99,43.03 154.29,55.1 236.23,60.38 138.91,8.92 288.59,-2.34 398.57,-87.52 109.01,-84.37 158.88,-230.11 150.58,-367.72 -8.34,-137.6 -68.05,-267.68 -144.69,-382.15 -179.69,-268.54 -477.39,-473.88 -800.38,-476.32 -109.09,-0.78 -222.13,23.03 -307.6,90.56 -310.15,244.91 149.88,724.87 288.59,952.36z"/>
   <path class="fil3" d="M7708.22 7520.04c48.32,79.36 99.7,161.71 178.81,210.41 69.88,43.03 154.27,55.1 236.12,60.38 138.91,8.92 288.59,-2.34 398.57,-87.52 109.01,-84.37 158.88,-230.11 150.58,-367.72 -8.26,-137.6 -68.05,-267.68 -144.69,-382.15 -179.69,-268.54 -477.4,-473.88 -800.47,-476.32 -108.92,-0.78 -222.04,23.03 -307.51,90.56 -310.15,244.91 149.99,724.87 288.59,952.36z"/>
   <path class="fil3" d="M6630.25 7520.04c48.43,79.36 99.7,161.71 178.81,210.41 69.88,43.03 154.27,55.1 236.12,60.38 138.8,8.92 288.59,-2.34 398.65,-87.52 109.01,-84.37 158.8,-230.11 150.49,-367.72 -8.25,-137.6 -68.04,-267.68 -144.79,-382.15 -179.67,-268.54 -477.29,-473.88 -800.36,-476.32 -108.92,-0.78 -222.04,23.03 -307.51,90.56 -310.15,244.91 149.99,724.87 288.59,952.36z"/>
   <path class="fil3" d="M6665.43 9938.69c219.59,-229.11 541.89,-418.2 843.2,-318.71 296.04,97.7 448.28,471.62 343.89,765.25 -32.46,91.35 -84.61,174.87 -115.1,266.88 -26.75,81.16 -36.06,167.03 -59.79,249.05 -67.13,232.27 -249.27,421.54 -466.4,528.07 -217.12,106.44 -466,135.95 -707.13,117.71 -883.8,-66.95 -153.41,-1279.3 161.33,-1608.25z"/>
   <path class="fil3" d="M33380.96 12145.98c255.66,-344.99 689.9,-503.68 1108.48,-601.67 417.57,-98.13 855.73,-157.8 1226.26,-375.19 42.16,-25.3 83.34,-52.93 124.49,-81.64 -86.25,479.55 -162.72,978.91 -14.7,1441.63 87.33,274.15 247.55,516.05 422.43,746.61l-3295.87 0c22.53,-54.68 42.46,-110.13 60.04,-165.24 104.81,-329.89 162.94,-686.25 368.87,-964.5z"/>
   <path class="fil2" d="M32242.02 9451.2c249.47,-223.14 620.7,-277.07 936.82,-166.69 1024.34,357.34 1890.89,993.6 2671.16,1746.61 -2.95,18.72 -6.87,37.53 -9.81,56.36 -41.15,28.71 -82.33,56.34 -124.49,81.64 -370.53,217.39 -808.69,277.06 -1226.26,375.19 -418.58,97.99 -852.82,256.68 -1108.48,601.67 -205.93,278.25 -264.06,634.61 -368.87,964.5 -17.58,55.11 -37.51,110.56 -60.04,165.24l-165.5 0c-431.41,-1222.33 -621.1,-2530.34 -544.53,-3824.52z"/>
   <path class="fil4" d="M31214.94 7255.3c10.7,-38.4 22.95,-78.68 51.96,-106.04 33.51,-31.56 82.25,-39.4 127.82,-45.68 105.78,-14.39 211.65,-27.61 317.51,-40.26 -7.67,36.54 -15.31,73.1 -23.03,109.67 -32.76,156.02 -65.69,315.29 -47.96,473.76 17.95,158.38 95.58,318.83 235.57,395.36 218.21,119.39 485.32,0.12 704.11,-118.29 272.19,293.36 796.82,294.52 1070.41,2.27 284.28,226.21 726.36,225.71 1010.62,-0.88 24.5,-19.42 51.96,-41.45 83.33,-36.48 21.56,3.54 38.23,20.2 54.9,35.19 227.41,208.68 618.53,203.49 840.07,-11.15 134.29,-129.66 200.95,-311.2 272.5,-483.38 77.44,-187.21 165.66,-370.21 262.69,-548.18 10.78,0.09 21.56,0.09 32.37,0.3 354.83,3.43 710.66,8.63 1065.49,13.89 1.98,12.37 3.95,24.93 5.89,37.15 -314.65,1326.27 -367.58,2714.37 -150.96,4060.26 16.67,108.59 36.29,217.66 75.5,320.5 18.61,47.99 41.15,95.54 62.74,143.07 -674.43,-66.65 -1348.83,-138.11 -2022.26,-211.7 -92.14,-265.22 -190.14,-528.36 -296.01,-788.58 -57.85,-143.8 -119.59,-288.92 -217.62,-409.47 -22.54,-28.35 -51.96,-57.15 -88.22,-58.12 -63.72,-1.87 -94.12,75.76 -105.87,138.38 -61.77,341.05 -73.52,691.17 -36.26,1035.86 -1047.88,-118.49 -2095.28,-244.53 -3141.19,-379.59 -56.16,-7.25 -115.28,-15.77 -159.88,-50.68 -56.74,-44.59 -76.25,-120.66 -91.06,-191.3 -227.51,-1082.74 -190.56,-2220.1 106.84,-3285.88z"/>
   <path class="fil5" d="M35640.24 7912.77c-221.54,214.64 -612.66,219.83 -840.07,11.15 -16.67,-14.99 -33.34,-31.65 -54.9,-35.19 -31.37,-4.97 -58.83,17.06 -83.33,36.48 -284.26,226.59 -726.34,227.09 -1010.62,0.88 -273.59,292.25 -798.22,291.09 -1070.41,-2.27 -218.79,118.41 -485.9,237.68 -704.11,118.29 -139.99,-76.53 -217.62,-236.98 -235.57,-395.36 -17.73,-158.47 15.2,-317.74 47.96,-473.76 7.72,-36.57 15.36,-73.13 23.03,-109.67 88.5,-10.5 177.22,-20.59 265.92,-30.08 1391.56,-149.98 2794.58,-165.36 4197.29,-152.03 -97.03,177.97 -185.25,360.97 -262.69,548.18 -71.55,172.18 -138.21,353.72 -272.5,483.38z"/>
   <path class="fil5" d="M34536.48 10126.89c11.75,-62.62 42.15,-140.25 105.87,-138.38 36.26,0.97 65.68,29.77 88.22,58.12 98.03,120.55 159.77,265.67 217.62,409.47 105.87,260.22 203.87,523.36 296.01,788.58 -247.99,-27.06 -495.99,-53.9 -743.98,-81.93 -37.26,-344.69 -25.51,-694.81 36.26,-1035.86z"/>
   <path class="fil5" d="M37128.22 10992.81c-216.62,-1345.89 -163.69,-2733.99 150.96,-4060.26 224.49,1461.53 206.85,3063.29 -11.75,4523.95l-0.97 -0.12c-21.59,-47.53 -44.13,-95.08 -62.74,-143.07 -39.21,-102.84 -58.83,-211.91 -75.5,-320.5z"/>
   <path class="fil3" d="M32526.2 7520.04c-48.41,79.36 -99.7,161.71 -178.78,210.41 -69.91,43.03 -154.3,55.1 -236.24,60.38 -138.82,8.92 -288.51,-2.34 -398.57,-87.52 -109,-84.37 -158.8,-230.11 -150.46,-367.72 8.22,-137.6 68.02,-267.68 144.68,-382.15 179.67,-268.54 477.26,-473.88 800.36,-476.32 109.01,-0.78 222.12,23.03 307.59,90.56 310.16,244.91 -149.96,724.87 -288.58,952.36z"/>
   <path class="fil3" d="M33604.28 7520.04c-49.02,79.36 -100.01,161.71 -178.89,210.41 -69.91,43.03 -154.3,55.1 -236.24,60.38 -138.82,8.92 -288.51,-2.34 -398.57,-87.52 -109,-84.37 -158.8,-230.11 -150.57,-367.72 8.33,-137.6 68.13,-267.68 144.68,-382.15 179.78,-268.54 477.37,-473.88 800.94,-476.32 108.81,-0.78 221.54,23.03 306.82,90.56 310.73,244.91 -149.96,724.87 -288.17,952.36z"/>
   <path class="fil3" d="M34681.55 7520.04c-48.04,79.36 -99,161.71 -178.41,210.41 -69.58,43.03 -153.88,55.1 -236.21,60.38 -138.24,8.92 -288.2,-2.34 -397.99,-87.52 -109.78,-84.37 -158.8,-230.11 -150.96,-367.72 7.83,-137.6 67.63,-267.68 145.07,-382.15 179.39,-268.54 477.37,-473.88 799.89,-476.32 108.81,-0.78 222.51,23.03 307.78,90.56 309.77,244.91 -149.99,724.87 -289.17,952.36z"/>
   <path class="fil3" d="M35759.83 7520.04c-48.04,79.36 -99,161.71 -178.42,210.41 -70.57,43.03 -154.88,55.1 -236.24,60.38 -139.18,8.92 -288.2,-2.34 -398.95,-87.52 -108.81,-84.37 -158.8,-230.11 -149.97,-367.72 7.84,-137.6 67.64,-267.68 144.08,-382.15 180.36,-268.54 477.39,-473.88 800.85,-476.32 108.82,-0.78 221.54,23.03 307.82,90.56 309.74,244.91 -149.99,724.87 -289.17,952.36z"/>
   <path class="fil3" d="M35724.54 9938.69c-219.6,-229.11 -541.11,-418.2 -843.01,-318.71 -296.03,97.7 -447.97,471.62 -344.08,765.25 32.35,91.35 85.28,174.87 115.68,266.88 26.45,81.16 36.26,167.03 59.79,249.05 66.66,232.27 248.97,421.54 466.59,528.07 216.65,106.44 465.62,135.95 706.75,117.71 883.21,-66.95 152.93,-1279.3 -161.72,-1608.25z"/>
   <path class="fil6" d="M2278.19 9708.49c-212.12,-83.82 -424.27,-167.61 -636.28,-251.41 -128.12,-50.55 -260.36,-102.01 -398.18,-100.56 -327.21,3.53 -582.76,309.24 -662.53,626.49 -113.62,451.13 44.98,949.82 367.28,1285.28 322.21,335.51 791.27,512 1256.46,519.75 345.56,5.7 707.06,-85.46 957.61,-323.44 205.95,-195.61 319.18,-474.66 353.66,-756.51 23.03,-187.61 12.75,-376.76 -13.7,-563.36 -33.84,-239.15 -22.17,-251.29 -229.68,-252.1 -365.64,-1.45 -648.42,-47.31 -994.64,-184.14z"/>
   <path class="fil3" d="M39266.13 7273.43c-67.63,-150.62 -174.47,-301.37 -335.24,-340.88 -159.77,-39.39 -330.33,48.03 -434.25,176.52 -102.92,128.39 -151.93,291.2 -194.08,450.74 -88.23,338.53 -152.91,694.51 -81.36,1037.15 71.55,342.55 305.84,670.3 644.03,761.64 86.25,23.32 180.36,30.17 262.69,-6.39 184.28,-82.51 212.7,-327.94 210.76,-529.71 -5.89,-494.79 133.32,-1088.6 -72.55,-1549.07z"/>
   <path class="fil7" d="M41561.86 8006.26c-53.93,-172.39 -210.76,-323.82 -400.93,-228.07 -148.99,74.79 -218.59,263.46 -249.96,417.23 -42.15,205.81 -28.43,444.27 175.47,560.41 205.84,117.73 422.49,-2.15 508.74,-202.77 72.55,-168.77 70.58,-389.01 -33.32,-546.8z"/>
   <path class="fil7" d="M2853.87 7000.67c-12.65,-140.43 -77.83,-273.35 -223.18,-314.6 -137.63,-39.09 -269.59,49.98 -331.24,168.47 -112.93,217 -82.92,566.12 189.78,642.77 204.98,57.51 351.6,-117.63 360.91,-304.63 1.2,-24.12 0.7,-49.49 -0.89,-75.18 6.4,-39.2 7.95,-78.98 4.62,-116.83z"/>
   <path class="fil8" d="M0.02 4602.28c26.42,-10.87 52.57,-22.43 78.41,-34.38 132.32,-61.17 261.52,-134.57 363.75,-238.56 118.43,-120.55 194.28,-275.3 285.56,-417.51 179.28,-279.72 424.13,-517.11 709.39,-687.65 97.83,-58.5 203.39,-110.15 316.82,-120.54 140.26,-12.94 277.41,37.84 415.71,63.8 486.31,91.14 992.5,-135.95 1337.74,-490.25 85.08,-87.2 161.63,-181.31 231.13,-280.6 34.42,-165.91 52.74,-333.8 38.93,-501.6 -33.82,-411.94 -254.67,-770.85 -507.97,-1068.01 -360.52,-423.02 -826.06,-771.15 -1354.97,-821.71 -528.94,-50.57 -1116.59,265.12 -1303.23,823.76 -28.73,86.15 -55.38,186.31 -129.68,227.29 -92.06,50.87 -195.09,-20.08 -278.7,-81.84 -65.68,-48.55 -133.46,-92.19 -202.89,-131.47l0 3759.27z"/>
   <path class="fil9" d="M3507.4 2677.19c-345.24,354.3 -851.43,581.39 -1337.74,490.25 -138.3,-25.96 -275.45,-76.74 -415.71,-63.8 -113.43,10.39 -218.99,62.04 -316.82,120.54 -285.26,170.54 -530.11,407.93 -709.39,687.65 -91.28,142.21 -167.13,296.96 -285.56,417.51 -102.23,103.99 -231.43,177.39 -363.75,238.56 -25.84,11.95 -51.99,23.51 -78.41,34.38l0 903.78c580.65,-165.23 1151.32,-387.09 1714.91,-620.53 445.61,-184.53 903,-386.83 1243.33,-759.36 320.46,-350.78 507.49,-821.22 658.84,-1288.74 46.65,-144.16 90.47,-291.65 121.43,-440.84 -69.5,99.29 -146.05,193.4 -231.13,280.6z"/>
   <path class="fil2" d="M38776.01 7937.08c-12.73,-39.32 -27.43,-79.21 -53.91,-110.46 -26.45,-31.37 -68.6,-52.85 -108.81,-44.8 -79.39,15.79 -98.03,118.97 -99,199.65 -0.98,64.87 -1.95,129.76 -2.95,194.64 -1.94,114.38 -2.94,231.4 34.32,339.5 47.04,135.94 264.66,352.55 330.35,141.53 56.85,-182.98 -44.13,-544.85 -100,-720.06z"/>
   <path class="fil9" d="M42333.3 4683.78c-168.78,39.43 -340.33,39.5 -510.69,-20.33 -204.87,-72.04 -372.5,-223.96 -570.51,-314.3 -507.77,-231.6 -1182.17,42.33 -1385.09,562.08 -100.95,258.54 -93.11,544.53 -135.27,818.77 -42.15,274.21 -157.82,566.48 -406.79,689.08 -196.06,96.93 -428.38,57.16 -619.52,-57.7 44.12,292.24 113.73,579.82 218.59,856.78 105.87,278.26 336.25,973.54 639.12,655.4 238.21,-250.62 250.94,-725.66 356.8,-1039 204.9,-602.25 721.47,-1088.59 1335.11,-1255.12 350.02,-95 718.47,-90.5 1078.25,-138.24l0 -757.42z"/>
   <path class="fil8" d="M42333.3 2033.87c-504.02,2.8 -1005.43,91.65 -1501.72,180.13 -503.85,89.79 -1032.2,190.65 -1426.24,516.92 -586.18,484.66 -713.64,1321.93 -751.84,2081.11 -25.51,511.61 -25.51,1037.94 51.93,1549.35 191.14,114.86 423.46,154.63 619.52,57.7 248.97,-122.6 364.64,-414.87 406.79,-689.08 42.16,-274.24 34.32,-560.23 135.27,-818.77 202.92,-519.75 877.32,-793.68 1385.09,-562.08 198.01,90.34 365.64,242.26 570.51,314.3 170.36,59.83 341.91,59.76 510.69,20.33l0 -2649.91z"/>
  </g>
 </g>
</svg>
